<mxfile host="app.diagrams.net" modified="2023-12-06T15:27:53.187Z" agent="Mozilla/5.0 (Windows NT 10.0; Win64; x64) AppleWebKit/537.36 (KHTML, like Gecko) Chrome/119.0.0.0 Safari/537.36" etag="G07MzanWNIxd4sVKeWAA" version="22.1.6" type="github">
  <diagram id="C5RBs43oDa-KdzZeNtuy" name="Page-1">
    <mxGraphModel dx="1050" dy="617" grid="1" gridSize="10" guides="1" tooltips="1" connect="1" arrows="1" fold="1" page="1" pageScale="1" pageWidth="827" pageHeight="1169" math="0" shadow="0">
      <root>
        <mxCell id="WIyWlLk6GJQsqaUBKTNV-0" />
        <mxCell id="WIyWlLk6GJQsqaUBKTNV-1" parent="WIyWlLk6GJQsqaUBKTNV-0" />
        <mxCell id="zkfFHV4jXpPFQw0GAbJ--17" value="Rectangle" style="swimlane;fontStyle=0;align=center;verticalAlign=top;childLayout=stackLayout;horizontal=1;startSize=26;horizontalStack=0;resizeParent=1;resizeLast=0;collapsible=1;marginBottom=0;rounded=0;shadow=0;strokeWidth=1;" parent="WIyWlLk6GJQsqaUBKTNV-1" vertex="1">
          <mxGeometry x="630" y="10" width="172" height="170" as="geometry">
            <mxRectangle x="550" y="140" width="160" height="26" as="alternateBounds" />
          </mxGeometry>
        </mxCell>
        <mxCell id="zkfFHV4jXpPFQw0GAbJ--18" value="- height: int" style="text;align=left;verticalAlign=top;spacingLeft=4;spacingRight=4;overflow=hidden;rotatable=0;points=[[0,0.5],[1,0.5]];portConstraint=eastwest;" parent="zkfFHV4jXpPFQw0GAbJ--17" vertex="1">
          <mxGeometry y="26" width="172" height="14" as="geometry" />
        </mxCell>
        <mxCell id="zkfFHV4jXpPFQw0GAbJ--19" value="- width: int" style="text;align=left;verticalAlign=top;spacingLeft=4;spacingRight=4;overflow=hidden;rotatable=0;points=[[0,0.5],[1,0.5]];portConstraint=eastwest;rounded=0;shadow=0;html=0;" parent="zkfFHV4jXpPFQw0GAbJ--17" vertex="1">
          <mxGeometry y="40" width="172" height="16" as="geometry" />
        </mxCell>
        <mxCell id="zkfFHV4jXpPFQw0GAbJ--23" value="" style="line;html=1;strokeWidth=1;align=left;verticalAlign=middle;spacingTop=-1;spacingLeft=3;spacingRight=3;rotatable=0;labelPosition=right;points=[];portConstraint=eastwest;" parent="zkfFHV4jXpPFQw0GAbJ--17" vertex="1">
          <mxGeometry y="56" width="172" height="14" as="geometry" />
        </mxCell>
        <mxCell id="zkfFHV4jXpPFQw0GAbJ--24" value="+ getHeight(): int" style="text;align=left;verticalAlign=top;spacingLeft=4;spacingRight=4;overflow=hidden;rotatable=0;points=[[0,0.5],[1,0.5]];portConstraint=eastwest;" parent="zkfFHV4jXpPFQw0GAbJ--17" vertex="1">
          <mxGeometry y="70" width="172" height="16" as="geometry" />
        </mxCell>
        <mxCell id="zkfFHV4jXpPFQw0GAbJ--25" value="+ getWidth(): int" style="text;align=left;verticalAlign=top;spacingLeft=4;spacingRight=4;overflow=hidden;rotatable=0;points=[[0,0.5],[1,0.5]];portConstraint=eastwest;" parent="zkfFHV4jXpPFQw0GAbJ--17" vertex="1">
          <mxGeometry y="86" width="172" height="20" as="geometry" />
        </mxCell>
        <mxCell id="BYD55XEwTdzDxL9DiL2L-0" value="+ setWidth(int): void" style="text;align=left;verticalAlign=top;spacingLeft=4;spacingRight=4;overflow=hidden;rotatable=0;points=[[0,0.5],[1,0.5]];portConstraint=eastwest;" vertex="1" parent="zkfFHV4jXpPFQw0GAbJ--17">
          <mxGeometry y="106" width="172" height="14" as="geometry" />
        </mxCell>
        <mxCell id="BYD55XEwTdzDxL9DiL2L-1" value="+ setHeight(int):void" style="text;align=left;verticalAlign=top;spacingLeft=4;spacingRight=4;overflow=hidden;rotatable=0;points=[[0,0.5],[1,0.5]];portConstraint=eastwest;" vertex="1" parent="zkfFHV4jXpPFQw0GAbJ--17">
          <mxGeometry y="120" width="172" height="16" as="geometry" />
        </mxCell>
        <mxCell id="BYD55XEwTdzDxL9DiL2L-2" value="+ copy(): Rectangle" style="text;align=left;verticalAlign=top;spacingLeft=4;spacingRight=4;overflow=hidden;rotatable=0;points=[[0,0.5],[1,0.5]];portConstraint=eastwest;" vertex="1" parent="zkfFHV4jXpPFQw0GAbJ--17">
          <mxGeometry y="136" width="172" height="30" as="geometry" />
        </mxCell>
        <mxCell id="BYD55XEwTdzDxL9DiL2L-3" value="Polygon" style="swimlane;fontStyle=0;align=center;verticalAlign=top;childLayout=stackLayout;horizontal=1;startSize=26;horizontalStack=0;resizeParent=1;resizeLast=0;collapsible=1;marginBottom=0;rounded=0;shadow=0;strokeWidth=1;" vertex="1" parent="WIyWlLk6GJQsqaUBKTNV-1">
          <mxGeometry x="630" y="190" width="172" height="170" as="geometry">
            <mxRectangle x="550" y="140" width="160" height="26" as="alternateBounds" />
          </mxGeometry>
        </mxCell>
        <mxCell id="BYD55XEwTdzDxL9DiL2L-4" value="- radius: int" style="text;align=left;verticalAlign=top;spacingLeft=4;spacingRight=4;overflow=hidden;rotatable=0;points=[[0,0.5],[1,0.5]];portConstraint=eastwest;" vertex="1" parent="BYD55XEwTdzDxL9DiL2L-3">
          <mxGeometry y="26" width="172" height="14" as="geometry" />
        </mxCell>
        <mxCell id="BYD55XEwTdzDxL9DiL2L-5" value="- numberOfSides: int" style="text;align=left;verticalAlign=top;spacingLeft=4;spacingRight=4;overflow=hidden;rotatable=0;points=[[0,0.5],[1,0.5]];portConstraint=eastwest;rounded=0;shadow=0;html=0;" vertex="1" parent="BYD55XEwTdzDxL9DiL2L-3">
          <mxGeometry y="40" width="172" height="16" as="geometry" />
        </mxCell>
        <mxCell id="BYD55XEwTdzDxL9DiL2L-6" value="" style="line;html=1;strokeWidth=1;align=left;verticalAlign=middle;spacingTop=-1;spacingLeft=3;spacingRight=3;rotatable=0;labelPosition=right;points=[];portConstraint=eastwest;" vertex="1" parent="BYD55XEwTdzDxL9DiL2L-3">
          <mxGeometry y="56" width="172" height="14" as="geometry" />
        </mxCell>
        <mxCell id="BYD55XEwTdzDxL9DiL2L-7" value="+ getRadius(): int" style="text;align=left;verticalAlign=top;spacingLeft=4;spacingRight=4;overflow=hidden;rotatable=0;points=[[0,0.5],[1,0.5]];portConstraint=eastwest;" vertex="1" parent="BYD55XEwTdzDxL9DiL2L-3">
          <mxGeometry y="70" width="172" height="16" as="geometry" />
        </mxCell>
        <mxCell id="BYD55XEwTdzDxL9DiL2L-8" value="+ getNumberOfSides(): int" style="text;align=left;verticalAlign=top;spacingLeft=4;spacingRight=4;overflow=hidden;rotatable=0;points=[[0,0.5],[1,0.5]];portConstraint=eastwest;" vertex="1" parent="BYD55XEwTdzDxL9DiL2L-3">
          <mxGeometry y="86" width="172" height="20" as="geometry" />
        </mxCell>
        <mxCell id="BYD55XEwTdzDxL9DiL2L-9" value="+ setRadius(int): void" style="text;align=left;verticalAlign=top;spacingLeft=4;spacingRight=4;overflow=hidden;rotatable=0;points=[[0,0.5],[1,0.5]];portConstraint=eastwest;" vertex="1" parent="BYD55XEwTdzDxL9DiL2L-3">
          <mxGeometry y="106" width="172" height="14" as="geometry" />
        </mxCell>
        <mxCell id="BYD55XEwTdzDxL9DiL2L-10" value="+ setNumberOfSides(int):void" style="text;align=left;verticalAlign=top;spacingLeft=4;spacingRight=4;overflow=hidden;rotatable=0;points=[[0,0.5],[1,0.5]];portConstraint=eastwest;" vertex="1" parent="BYD55XEwTdzDxL9DiL2L-3">
          <mxGeometry y="120" width="172" height="16" as="geometry" />
        </mxCell>
        <mxCell id="BYD55XEwTdzDxL9DiL2L-11" value="+ copy(): Polygon" style="text;align=left;verticalAlign=top;spacingLeft=4;spacingRight=4;overflow=hidden;rotatable=0;points=[[0,0.5],[1,0.5]];portConstraint=eastwest;" vertex="1" parent="BYD55XEwTdzDxL9DiL2L-3">
          <mxGeometry y="136" width="172" height="30" as="geometry" />
        </mxCell>
        <mxCell id="BYD55XEwTdzDxL9DiL2L-12" value="Ellipse" style="swimlane;fontStyle=0;align=center;verticalAlign=top;childLayout=stackLayout;horizontal=1;startSize=26;horizontalStack=0;resizeParent=1;resizeLast=0;collapsible=1;marginBottom=0;rounded=0;shadow=0;strokeWidth=1;" vertex="1" parent="WIyWlLk6GJQsqaUBKTNV-1">
          <mxGeometry x="630" y="370" width="172" height="170" as="geometry">
            <mxRectangle x="550" y="140" width="160" height="26" as="alternateBounds" />
          </mxGeometry>
        </mxCell>
        <mxCell id="BYD55XEwTdzDxL9DiL2L-13" value="- height: int" style="text;align=left;verticalAlign=top;spacingLeft=4;spacingRight=4;overflow=hidden;rotatable=0;points=[[0,0.5],[1,0.5]];portConstraint=eastwest;" vertex="1" parent="BYD55XEwTdzDxL9DiL2L-12">
          <mxGeometry y="26" width="172" height="14" as="geometry" />
        </mxCell>
        <mxCell id="BYD55XEwTdzDxL9DiL2L-14" value="- width: int" style="text;align=left;verticalAlign=top;spacingLeft=4;spacingRight=4;overflow=hidden;rotatable=0;points=[[0,0.5],[1,0.5]];portConstraint=eastwest;rounded=0;shadow=0;html=0;" vertex="1" parent="BYD55XEwTdzDxL9DiL2L-12">
          <mxGeometry y="40" width="172" height="16" as="geometry" />
        </mxCell>
        <mxCell id="BYD55XEwTdzDxL9DiL2L-15" value="" style="line;html=1;strokeWidth=1;align=left;verticalAlign=middle;spacingTop=-1;spacingLeft=3;spacingRight=3;rotatable=0;labelPosition=right;points=[];portConstraint=eastwest;" vertex="1" parent="BYD55XEwTdzDxL9DiL2L-12">
          <mxGeometry y="56" width="172" height="14" as="geometry" />
        </mxCell>
        <mxCell id="BYD55XEwTdzDxL9DiL2L-16" value="+ getHeight(): int" style="text;align=left;verticalAlign=top;spacingLeft=4;spacingRight=4;overflow=hidden;rotatable=0;points=[[0,0.5],[1,0.5]];portConstraint=eastwest;" vertex="1" parent="BYD55XEwTdzDxL9DiL2L-12">
          <mxGeometry y="70" width="172" height="16" as="geometry" />
        </mxCell>
        <mxCell id="BYD55XEwTdzDxL9DiL2L-17" value="+ getWidth(): int" style="text;align=left;verticalAlign=top;spacingLeft=4;spacingRight=4;overflow=hidden;rotatable=0;points=[[0,0.5],[1,0.5]];portConstraint=eastwest;" vertex="1" parent="BYD55XEwTdzDxL9DiL2L-12">
          <mxGeometry y="86" width="172" height="20" as="geometry" />
        </mxCell>
        <mxCell id="BYD55XEwTdzDxL9DiL2L-18" value="+ setWidth(int): void" style="text;align=left;verticalAlign=top;spacingLeft=4;spacingRight=4;overflow=hidden;rotatable=0;points=[[0,0.5],[1,0.5]];portConstraint=eastwest;" vertex="1" parent="BYD55XEwTdzDxL9DiL2L-12">
          <mxGeometry y="106" width="172" height="14" as="geometry" />
        </mxCell>
        <mxCell id="BYD55XEwTdzDxL9DiL2L-19" value="+ setHeight(int):void" style="text;align=left;verticalAlign=top;spacingLeft=4;spacingRight=4;overflow=hidden;rotatable=0;points=[[0,0.5],[1,0.5]];portConstraint=eastwest;" vertex="1" parent="BYD55XEwTdzDxL9DiL2L-12">
          <mxGeometry y="120" width="172" height="16" as="geometry" />
        </mxCell>
        <mxCell id="BYD55XEwTdzDxL9DiL2L-20" value="+ copy(): Ellipse" style="text;align=left;verticalAlign=top;spacingLeft=4;spacingRight=4;overflow=hidden;rotatable=0;points=[[0,0.5],[1,0.5]];portConstraint=eastwest;" vertex="1" parent="BYD55XEwTdzDxL9DiL2L-12">
          <mxGeometry y="136" width="172" height="30" as="geometry" />
        </mxCell>
        <mxCell id="BYD55XEwTdzDxL9DiL2L-21" value="Line" style="swimlane;fontStyle=0;align=center;verticalAlign=top;childLayout=stackLayout;horizontal=1;startSize=26;horizontalStack=0;resizeParent=1;resizeLast=0;collapsible=1;marginBottom=0;rounded=0;shadow=0;strokeWidth=1;" vertex="1" parent="WIyWlLk6GJQsqaUBKTNV-1">
          <mxGeometry x="450" y="10" width="172" height="130" as="geometry">
            <mxRectangle x="550" y="140" width="160" height="26" as="alternateBounds" />
          </mxGeometry>
        </mxCell>
        <mxCell id="BYD55XEwTdzDxL9DiL2L-22" value="- points: int[]" style="text;align=left;verticalAlign=top;spacingLeft=4;spacingRight=4;overflow=hidden;rotatable=0;points=[[0,0.5],[1,0.5]];portConstraint=eastwest;" vertex="1" parent="BYD55XEwTdzDxL9DiL2L-21">
          <mxGeometry y="26" width="172" height="24" as="geometry" />
        </mxCell>
        <mxCell id="BYD55XEwTdzDxL9DiL2L-24" value="" style="line;html=1;strokeWidth=1;align=left;verticalAlign=middle;spacingTop=-1;spacingLeft=3;spacingRight=3;rotatable=0;labelPosition=right;points=[];portConstraint=eastwest;" vertex="1" parent="BYD55XEwTdzDxL9DiL2L-21">
          <mxGeometry y="50" width="172" height="14" as="geometry" />
        </mxCell>
        <mxCell id="BYD55XEwTdzDxL9DiL2L-25" value="+ getPoints(): int[]" style="text;align=left;verticalAlign=top;spacingLeft=4;spacingRight=4;overflow=hidden;rotatable=0;points=[[0,0.5],[1,0.5]];portConstraint=eastwest;" vertex="1" parent="BYD55XEwTdzDxL9DiL2L-21">
          <mxGeometry y="64" width="172" height="16" as="geometry" />
        </mxCell>
        <mxCell id="BYD55XEwTdzDxL9DiL2L-26" value="+ setPoints(int[]): void" style="text;align=left;verticalAlign=top;spacingLeft=4;spacingRight=4;overflow=hidden;rotatable=0;points=[[0,0.5],[1,0.5]];portConstraint=eastwest;" vertex="1" parent="BYD55XEwTdzDxL9DiL2L-21">
          <mxGeometry y="80" width="172" height="20" as="geometry" />
        </mxCell>
        <mxCell id="BYD55XEwTdzDxL9DiL2L-29" value="+ copy(): Line" style="text;align=left;verticalAlign=top;spacingLeft=4;spacingRight=4;overflow=hidden;rotatable=0;points=[[0,0.5],[1,0.5]];portConstraint=eastwest;" vertex="1" parent="BYD55XEwTdzDxL9DiL2L-21">
          <mxGeometry y="100" width="172" height="30" as="geometry" />
        </mxCell>
        <mxCell id="BYD55XEwTdzDxL9DiL2L-30" value="Circle" style="swimlane;fontStyle=0;align=center;verticalAlign=top;childLayout=stackLayout;horizontal=1;startSize=26;horizontalStack=0;resizeParent=1;resizeLast=0;collapsible=1;marginBottom=0;rounded=0;shadow=0;strokeWidth=1;" vertex="1" parent="WIyWlLk6GJQsqaUBKTNV-1">
          <mxGeometry x="450" y="150" width="172" height="130" as="geometry">
            <mxRectangle x="550" y="140" width="160" height="26" as="alternateBounds" />
          </mxGeometry>
        </mxCell>
        <mxCell id="BYD55XEwTdzDxL9DiL2L-31" value="- radius: int" style="text;align=left;verticalAlign=top;spacingLeft=4;spacingRight=4;overflow=hidden;rotatable=0;points=[[0,0.5],[1,0.5]];portConstraint=eastwest;" vertex="1" parent="BYD55XEwTdzDxL9DiL2L-30">
          <mxGeometry y="26" width="172" height="24" as="geometry" />
        </mxCell>
        <mxCell id="BYD55XEwTdzDxL9DiL2L-33" value="" style="line;html=1;strokeWidth=1;align=left;verticalAlign=middle;spacingTop=-1;spacingLeft=3;spacingRight=3;rotatable=0;labelPosition=right;points=[];portConstraint=eastwest;" vertex="1" parent="BYD55XEwTdzDxL9DiL2L-30">
          <mxGeometry y="50" width="172" height="10" as="geometry" />
        </mxCell>
        <mxCell id="BYD55XEwTdzDxL9DiL2L-34" value="+ getRadius(): int" style="text;align=left;verticalAlign=top;spacingLeft=4;spacingRight=4;overflow=hidden;rotatable=0;points=[[0,0.5],[1,0.5]];portConstraint=eastwest;" vertex="1" parent="BYD55XEwTdzDxL9DiL2L-30">
          <mxGeometry y="60" width="172" height="20" as="geometry" />
        </mxCell>
        <mxCell id="BYD55XEwTdzDxL9DiL2L-35" value="+ setRadius(int): void" style="text;align=left;verticalAlign=top;spacingLeft=4;spacingRight=4;overflow=hidden;rotatable=0;points=[[0,0.5],[1,0.5]];portConstraint=eastwest;" vertex="1" parent="BYD55XEwTdzDxL9DiL2L-30">
          <mxGeometry y="80" width="172" height="20" as="geometry" />
        </mxCell>
        <mxCell id="BYD55XEwTdzDxL9DiL2L-38" value="+ copy(): Circle" style="text;align=left;verticalAlign=top;spacingLeft=4;spacingRight=4;overflow=hidden;rotatable=0;points=[[0,0.5],[1,0.5]];portConstraint=eastwest;" vertex="1" parent="BYD55XEwTdzDxL9DiL2L-30">
          <mxGeometry y="100" width="172" height="30" as="geometry" />
        </mxCell>
        <mxCell id="BYD55XEwTdzDxL9DiL2L-40" value="Element" style="swimlane;fontStyle=0;align=center;verticalAlign=top;childLayout=stackLayout;horizontal=1;startSize=26;horizontalStack=0;resizeParent=1;resizeLast=0;collapsible=1;marginBottom=0;rounded=0;shadow=0;strokeWidth=1;" vertex="1" parent="WIyWlLk6GJQsqaUBKTNV-1">
          <mxGeometry x="450" y="296" width="172" height="266" as="geometry">
            <mxRectangle x="550" y="140" width="160" height="26" as="alternateBounds" />
          </mxGeometry>
        </mxCell>
        <mxCell id="BYD55XEwTdzDxL9DiL2L-41" value="- stroke: String" style="text;align=left;verticalAlign=top;spacingLeft=4;spacingRight=4;overflow=hidden;rotatable=0;points=[[0,0.5],[1,0.5]];portConstraint=eastwest;" vertex="1" parent="BYD55XEwTdzDxL9DiL2L-40">
          <mxGeometry y="26" width="172" height="14" as="geometry" />
        </mxCell>
        <mxCell id="BYD55XEwTdzDxL9DiL2L-42" value="- strokeWidth: String" style="text;align=left;verticalAlign=top;spacingLeft=4;spacingRight=4;overflow=hidden;rotatable=0;points=[[0,0.5],[1,0.5]];portConstraint=eastwest;rounded=0;shadow=0;html=0;" vertex="1" parent="BYD55XEwTdzDxL9DiL2L-40">
          <mxGeometry y="40" width="172" height="16" as="geometry" />
        </mxCell>
        <mxCell id="BYD55XEwTdzDxL9DiL2L-49" value="- draggable: boolean" style="text;align=left;verticalAlign=top;spacingLeft=4;spacingRight=4;overflow=hidden;rotatable=0;points=[[0,0.5],[1,0.5]];portConstraint=eastwest;rounded=0;shadow=0;html=0;" vertex="1" parent="BYD55XEwTdzDxL9DiL2L-40">
          <mxGeometry y="56" width="172" height="16" as="geometry" />
        </mxCell>
        <mxCell id="BYD55XEwTdzDxL9DiL2L-50" value="- key: String" style="text;align=left;verticalAlign=top;spacingLeft=4;spacingRight=4;overflow=hidden;rotatable=0;points=[[0,0.5],[1,0.5]];portConstraint=eastwest;rounded=0;shadow=0;html=0;" vertex="1" parent="BYD55XEwTdzDxL9DiL2L-40">
          <mxGeometry y="72" width="172" height="16" as="geometry" />
        </mxCell>
        <mxCell id="BYD55XEwTdzDxL9DiL2L-43" value="" style="line;html=1;strokeWidth=1;align=left;verticalAlign=middle;spacingTop=-1;spacingLeft=3;spacingRight=3;rotatable=0;labelPosition=right;points=[];portConstraint=eastwest;" vertex="1" parent="BYD55XEwTdzDxL9DiL2L-40">
          <mxGeometry y="88" width="172" height="14" as="geometry" />
        </mxCell>
        <mxCell id="BYD55XEwTdzDxL9DiL2L-44" value="+ getStroke(): String" style="text;align=left;verticalAlign=top;spacingLeft=4;spacingRight=4;overflow=hidden;rotatable=0;points=[[0,0.5],[1,0.5]];portConstraint=eastwest;" vertex="1" parent="BYD55XEwTdzDxL9DiL2L-40">
          <mxGeometry y="102" width="172" height="16" as="geometry" />
        </mxCell>
        <mxCell id="BYD55XEwTdzDxL9DiL2L-45" value="+ getStrokeWidth(): String" style="text;align=left;verticalAlign=top;spacingLeft=4;spacingRight=4;overflow=hidden;rotatable=0;points=[[0,0.5],[1,0.5]];portConstraint=eastwest;" vertex="1" parent="BYD55XEwTdzDxL9DiL2L-40">
          <mxGeometry y="118" width="172" height="20" as="geometry" />
        </mxCell>
        <mxCell id="BYD55XEwTdzDxL9DiL2L-51" value="+ isDraggable(): boolean" style="text;align=left;verticalAlign=top;spacingLeft=4;spacingRight=4;overflow=hidden;rotatable=0;points=[[0,0.5],[1,0.5]];portConstraint=eastwest;" vertex="1" parent="BYD55XEwTdzDxL9DiL2L-40">
          <mxGeometry y="138" width="172" height="18" as="geometry" />
        </mxCell>
        <mxCell id="BYD55XEwTdzDxL9DiL2L-52" value="+ getKey(): String" style="text;align=left;verticalAlign=top;spacingLeft=4;spacingRight=4;overflow=hidden;rotatable=0;points=[[0,0.5],[1,0.5]];portConstraint=eastwest;" vertex="1" parent="BYD55XEwTdzDxL9DiL2L-40">
          <mxGeometry y="156" width="172" height="18" as="geometry" />
        </mxCell>
        <mxCell id="BYD55XEwTdzDxL9DiL2L-46" value="+ setStroke(String): void" style="text;align=left;verticalAlign=top;spacingLeft=4;spacingRight=4;overflow=hidden;rotatable=0;points=[[0,0.5],[1,0.5]];portConstraint=eastwest;" vertex="1" parent="BYD55XEwTdzDxL9DiL2L-40">
          <mxGeometry y="174" width="172" height="14" as="geometry" />
        </mxCell>
        <mxCell id="BYD55XEwTdzDxL9DiL2L-47" value="+ setStrokeWidth(String):void" style="text;align=left;verticalAlign=top;spacingLeft=4;spacingRight=4;overflow=hidden;rotatable=0;points=[[0,0.5],[1,0.5]];portConstraint=eastwest;" vertex="1" parent="BYD55XEwTdzDxL9DiL2L-40">
          <mxGeometry y="188" width="172" height="16" as="geometry" />
        </mxCell>
        <mxCell id="BYD55XEwTdzDxL9DiL2L-53" value="+ setDraggable(boolean):void" style="text;align=left;verticalAlign=top;spacingLeft=4;spacingRight=4;overflow=hidden;rotatable=0;points=[[0,0.5],[1,0.5]];portConstraint=eastwest;" vertex="1" parent="BYD55XEwTdzDxL9DiL2L-40">
          <mxGeometry y="204" width="172" height="16" as="geometry" />
        </mxCell>
        <mxCell id="BYD55XEwTdzDxL9DiL2L-54" value="+ setKey(String):void" style="text;align=left;verticalAlign=top;spacingLeft=4;spacingRight=4;overflow=hidden;rotatable=0;points=[[0,0.5],[1,0.5]];portConstraint=eastwest;" vertex="1" parent="BYD55XEwTdzDxL9DiL2L-40">
          <mxGeometry y="220" width="172" height="16" as="geometry" />
        </mxCell>
        <mxCell id="BYD55XEwTdzDxL9DiL2L-48" value="+ copy(): Element" style="text;align=left;verticalAlign=top;spacingLeft=4;spacingRight=4;overflow=hidden;rotatable=0;points=[[0,0.5],[1,0.5]];portConstraint=eastwest;" vertex="1" parent="BYD55XEwTdzDxL9DiL2L-40">
          <mxGeometry y="236" width="172" height="30" as="geometry" />
        </mxCell>
        <mxCell id="BYD55XEwTdzDxL9DiL2L-55" value="Position" style="swimlane;fontStyle=0;align=center;verticalAlign=top;childLayout=stackLayout;horizontal=1;startSize=26;horizontalStack=0;resizeParent=1;resizeLast=0;collapsible=1;marginBottom=0;rounded=0;shadow=0;strokeWidth=1;" vertex="1" parent="WIyWlLk6GJQsqaUBKTNV-1">
          <mxGeometry x="630" y="550" width="172" height="150" as="geometry">
            <mxRectangle x="550" y="140" width="160" height="26" as="alternateBounds" />
          </mxGeometry>
        </mxCell>
        <mxCell id="BYD55XEwTdzDxL9DiL2L-56" value="- x: int" style="text;align=left;verticalAlign=top;spacingLeft=4;spacingRight=4;overflow=hidden;rotatable=0;points=[[0,0.5],[1,0.5]];portConstraint=eastwest;" vertex="1" parent="BYD55XEwTdzDxL9DiL2L-55">
          <mxGeometry y="26" width="172" height="14" as="geometry" />
        </mxCell>
        <mxCell id="BYD55XEwTdzDxL9DiL2L-57" value="- y: int" style="text;align=left;verticalAlign=top;spacingLeft=4;spacingRight=4;overflow=hidden;rotatable=0;points=[[0,0.5],[1,0.5]];portConstraint=eastwest;rounded=0;shadow=0;html=0;" vertex="1" parent="BYD55XEwTdzDxL9DiL2L-55">
          <mxGeometry y="40" width="172" height="20" as="geometry" />
        </mxCell>
        <mxCell id="BYD55XEwTdzDxL9DiL2L-58" value="" style="line;html=1;strokeWidth=1;align=left;verticalAlign=middle;spacingTop=-1;spacingLeft=3;spacingRight=3;rotatable=0;labelPosition=right;points=[];portConstraint=eastwest;" vertex="1" parent="BYD55XEwTdzDxL9DiL2L-55">
          <mxGeometry y="60" width="172" height="4" as="geometry" />
        </mxCell>
        <mxCell id="BYD55XEwTdzDxL9DiL2L-59" value="+ getX(): int" style="text;align=left;verticalAlign=top;spacingLeft=4;spacingRight=4;overflow=hidden;rotatable=0;points=[[0,0.5],[1,0.5]];portConstraint=eastwest;" vertex="1" parent="BYD55XEwTdzDxL9DiL2L-55">
          <mxGeometry y="64" width="172" height="16" as="geometry" />
        </mxCell>
        <mxCell id="BYD55XEwTdzDxL9DiL2L-60" value="+ getY(): int" style="text;align=left;verticalAlign=top;spacingLeft=4;spacingRight=4;overflow=hidden;rotatable=0;points=[[0,0.5],[1,0.5]];portConstraint=eastwest;" vertex="1" parent="BYD55XEwTdzDxL9DiL2L-55">
          <mxGeometry y="80" width="172" height="20" as="geometry" />
        </mxCell>
        <mxCell id="BYD55XEwTdzDxL9DiL2L-61" value="+ setX(int): void" style="text;align=left;verticalAlign=top;spacingLeft=4;spacingRight=4;overflow=hidden;rotatable=0;points=[[0,0.5],[1,0.5]];portConstraint=eastwest;" vertex="1" parent="BYD55XEwTdzDxL9DiL2L-55">
          <mxGeometry y="100" width="172" height="14" as="geometry" />
        </mxCell>
        <mxCell id="BYD55XEwTdzDxL9DiL2L-62" value="+ setY(int):void" style="text;align=left;verticalAlign=top;spacingLeft=4;spacingRight=4;overflow=hidden;rotatable=0;points=[[0,0.5],[1,0.5]];portConstraint=eastwest;" vertex="1" parent="BYD55XEwTdzDxL9DiL2L-55">
          <mxGeometry y="114" width="172" height="16" as="geometry" />
        </mxCell>
        <mxCell id="BYD55XEwTdzDxL9DiL2L-64" value="Shape" style="swimlane;fontStyle=0;align=center;verticalAlign=top;childLayout=stackLayout;horizontal=1;startSize=26;horizontalStack=0;resizeParent=1;resizeLast=0;collapsible=1;marginBottom=0;rounded=0;shadow=0;strokeWidth=1;" vertex="1" parent="WIyWlLk6GJQsqaUBKTNV-1">
          <mxGeometry x="450" y="570" width="172" height="200" as="geometry">
            <mxRectangle x="550" y="140" width="160" height="26" as="alternateBounds" />
          </mxGeometry>
        </mxCell>
        <mxCell id="BYD55XEwTdzDxL9DiL2L-65" value="- fill: String" style="text;align=left;verticalAlign=top;spacingLeft=4;spacingRight=4;overflow=hidden;rotatable=0;points=[[0,0.5],[1,0.5]];portConstraint=eastwest;" vertex="1" parent="BYD55XEwTdzDxL9DiL2L-64">
          <mxGeometry y="26" width="172" height="14" as="geometry" />
        </mxCell>
        <mxCell id="BYD55XEwTdzDxL9DiL2L-66" value="- position: Position" style="text;align=left;verticalAlign=top;spacingLeft=4;spacingRight=4;overflow=hidden;rotatable=0;points=[[0,0.5],[1,0.5]];portConstraint=eastwest;rounded=0;shadow=0;html=0;" vertex="1" parent="BYD55XEwTdzDxL9DiL2L-64">
          <mxGeometry y="40" width="172" height="16" as="geometry" />
        </mxCell>
        <mxCell id="BYD55XEwTdzDxL9DiL2L-68" value="- opacity: String" style="text;align=left;verticalAlign=top;spacingLeft=4;spacingRight=4;overflow=hidden;rotatable=0;points=[[0,0.5],[1,0.5]];portConstraint=eastwest;rounded=0;shadow=0;html=0;" vertex="1" parent="BYD55XEwTdzDxL9DiL2L-64">
          <mxGeometry y="56" width="172" height="16" as="geometry" />
        </mxCell>
        <mxCell id="BYD55XEwTdzDxL9DiL2L-69" value="" style="line;html=1;strokeWidth=1;align=left;verticalAlign=middle;spacingTop=-1;spacingLeft=3;spacingRight=3;rotatable=0;labelPosition=right;points=[];portConstraint=eastwest;" vertex="1" parent="BYD55XEwTdzDxL9DiL2L-64">
          <mxGeometry y="72" width="172" height="14" as="geometry" />
        </mxCell>
        <mxCell id="BYD55XEwTdzDxL9DiL2L-70" value="+ getFill(): String" style="text;align=left;verticalAlign=top;spacingLeft=4;spacingRight=4;overflow=hidden;rotatable=0;points=[[0,0.5],[1,0.5]];portConstraint=eastwest;" vertex="1" parent="BYD55XEwTdzDxL9DiL2L-64">
          <mxGeometry y="86" width="172" height="16" as="geometry" />
        </mxCell>
        <mxCell id="BYD55XEwTdzDxL9DiL2L-71" value="+ getPosition(): Position" style="text;align=left;verticalAlign=top;spacingLeft=4;spacingRight=4;overflow=hidden;rotatable=0;points=[[0,0.5],[1,0.5]];portConstraint=eastwest;" vertex="1" parent="BYD55XEwTdzDxL9DiL2L-64">
          <mxGeometry y="102" width="172" height="20" as="geometry" />
        </mxCell>
        <mxCell id="BYD55XEwTdzDxL9DiL2L-73" value="+ getOpacity(): String" style="text;align=left;verticalAlign=top;spacingLeft=4;spacingRight=4;overflow=hidden;rotatable=0;points=[[0,0.5],[1,0.5]];portConstraint=eastwest;" vertex="1" parent="BYD55XEwTdzDxL9DiL2L-64">
          <mxGeometry y="122" width="172" height="18" as="geometry" />
        </mxCell>
        <mxCell id="BYD55XEwTdzDxL9DiL2L-74" value="+ setFill(String): void" style="text;align=left;verticalAlign=top;spacingLeft=4;spacingRight=4;overflow=hidden;rotatable=0;points=[[0,0.5],[1,0.5]];portConstraint=eastwest;" vertex="1" parent="BYD55XEwTdzDxL9DiL2L-64">
          <mxGeometry y="140" width="172" height="14" as="geometry" />
        </mxCell>
        <mxCell id="BYD55XEwTdzDxL9DiL2L-75" value="+ setPosition(Position):void" style="text;align=left;verticalAlign=top;spacingLeft=4;spacingRight=4;overflow=hidden;rotatable=0;points=[[0,0.5],[1,0.5]];portConstraint=eastwest;" vertex="1" parent="BYD55XEwTdzDxL9DiL2L-64">
          <mxGeometry y="154" width="172" height="16" as="geometry" />
        </mxCell>
        <mxCell id="BYD55XEwTdzDxL9DiL2L-77" value="+ setOpacity(String):void" style="text;align=left;verticalAlign=top;spacingLeft=4;spacingRight=4;overflow=hidden;rotatable=0;points=[[0,0.5],[1,0.5]];portConstraint=eastwest;" vertex="1" parent="BYD55XEwTdzDxL9DiL2L-64">
          <mxGeometry y="170" width="172" height="16" as="geometry" />
        </mxCell>
        <mxCell id="BYD55XEwTdzDxL9DiL2L-79" value="RequestEntity" style="swimlane;fontStyle=0;align=center;verticalAlign=top;childLayout=stackLayout;horizontal=1;startSize=26;horizontalStack=0;resizeParent=1;resizeLast=0;collapsible=1;marginBottom=0;rounded=0;shadow=0;strokeWidth=1;" vertex="1" parent="WIyWlLk6GJQsqaUBKTNV-1">
          <mxGeometry x="270" y="10" width="172" height="684" as="geometry">
            <mxRectangle x="550" y="140" width="160" height="26" as="alternateBounds" />
          </mxGeometry>
        </mxCell>
        <mxCell id="BYD55XEwTdzDxL9DiL2L-80" value="- type: String" style="text;align=left;verticalAlign=top;spacingLeft=4;spacingRight=4;overflow=hidden;rotatable=0;points=[[0,0.5],[1,0.5]];portConstraint=eastwest;" vertex="1" parent="BYD55XEwTdzDxL9DiL2L-79">
          <mxGeometry y="26" width="172" height="14" as="geometry" />
        </mxCell>
        <mxCell id="BYD55XEwTdzDxL9DiL2L-96" value="- width: int" style="text;align=left;verticalAlign=top;spacingLeft=4;spacingRight=4;overflow=hidden;rotatable=0;points=[[0,0.5],[1,0.5]];portConstraint=eastwest;rounded=0;shadow=0;html=0;" vertex="1" parent="BYD55XEwTdzDxL9DiL2L-79">
          <mxGeometry y="40" width="172" height="16" as="geometry" />
        </mxCell>
        <mxCell id="BYD55XEwTdzDxL9DiL2L-95" value="- height: int" style="text;align=left;verticalAlign=top;spacingLeft=4;spacingRight=4;overflow=hidden;rotatable=0;points=[[0,0.5],[1,0.5]];portConstraint=eastwest;" vertex="1" parent="BYD55XEwTdzDxL9DiL2L-79">
          <mxGeometry y="56" width="172" height="14" as="geometry" />
        </mxCell>
        <mxCell id="BYD55XEwTdzDxL9DiL2L-97" value="- radius: int" style="text;align=left;verticalAlign=top;spacingLeft=4;spacingRight=4;overflow=hidden;rotatable=0;points=[[0,0.5],[1,0.5]];portConstraint=eastwest;" vertex="1" parent="BYD55XEwTdzDxL9DiL2L-79">
          <mxGeometry y="70" width="172" height="14" as="geometry" />
        </mxCell>
        <mxCell id="BYD55XEwTdzDxL9DiL2L-98" value="- numberOfSides: int" style="text;align=left;verticalAlign=top;spacingLeft=4;spacingRight=4;overflow=hidden;rotatable=0;points=[[0,0.5],[1,0.5]];portConstraint=eastwest;rounded=0;shadow=0;html=0;" vertex="1" parent="BYD55XEwTdzDxL9DiL2L-79">
          <mxGeometry y="84" width="172" height="16" as="geometry" />
        </mxCell>
        <mxCell id="BYD55XEwTdzDxL9DiL2L-99" value="- fill: String" style="text;align=left;verticalAlign=top;spacingLeft=4;spacingRight=4;overflow=hidden;rotatable=0;points=[[0,0.5],[1,0.5]];portConstraint=eastwest;" vertex="1" parent="BYD55XEwTdzDxL9DiL2L-79">
          <mxGeometry y="100" width="172" height="14" as="geometry" />
        </mxCell>
        <mxCell id="BYD55XEwTdzDxL9DiL2L-100" value="- position: Position" style="text;align=left;verticalAlign=top;spacingLeft=4;spacingRight=4;overflow=hidden;rotatable=0;points=[[0,0.5],[1,0.5]];portConstraint=eastwest;rounded=0;shadow=0;html=0;" vertex="1" parent="BYD55XEwTdzDxL9DiL2L-79">
          <mxGeometry y="114" width="172" height="16" as="geometry" />
        </mxCell>
        <mxCell id="BYD55XEwTdzDxL9DiL2L-101" value="- opacity: String" style="text;align=left;verticalAlign=top;spacingLeft=4;spacingRight=4;overflow=hidden;rotatable=0;points=[[0,0.5],[1,0.5]];portConstraint=eastwest;rounded=0;shadow=0;html=0;" vertex="1" parent="BYD55XEwTdzDxL9DiL2L-79">
          <mxGeometry y="130" width="172" height="16" as="geometry" />
        </mxCell>
        <mxCell id="BYD55XEwTdzDxL9DiL2L-94" value="- stroke: String" style="text;align=left;verticalAlign=top;spacingLeft=4;spacingRight=4;overflow=hidden;rotatable=0;points=[[0,0.5],[1,0.5]];portConstraint=eastwest;" vertex="1" parent="BYD55XEwTdzDxL9DiL2L-79">
          <mxGeometry y="146" width="172" height="14" as="geometry" />
        </mxCell>
        <mxCell id="BYD55XEwTdzDxL9DiL2L-81" value="- strokeWidth: String" style="text;align=left;verticalAlign=top;spacingLeft=4;spacingRight=4;overflow=hidden;rotatable=0;points=[[0,0.5],[1,0.5]];portConstraint=eastwest;rounded=0;shadow=0;html=0;" vertex="1" parent="BYD55XEwTdzDxL9DiL2L-79">
          <mxGeometry y="160" width="172" height="16" as="geometry" />
        </mxCell>
        <mxCell id="BYD55XEwTdzDxL9DiL2L-82" value="- draggable: boolean" style="text;align=left;verticalAlign=top;spacingLeft=4;spacingRight=4;overflow=hidden;rotatable=0;points=[[0,0.5],[1,0.5]];portConstraint=eastwest;rounded=0;shadow=0;html=0;" vertex="1" parent="BYD55XEwTdzDxL9DiL2L-79">
          <mxGeometry y="176" width="172" height="16" as="geometry" />
        </mxCell>
        <mxCell id="BYD55XEwTdzDxL9DiL2L-83" value="- key: String" style="text;align=left;verticalAlign=top;spacingLeft=4;spacingRight=4;overflow=hidden;rotatable=0;points=[[0,0.5],[1,0.5]];portConstraint=eastwest;rounded=0;shadow=0;html=0;" vertex="1" parent="BYD55XEwTdzDxL9DiL2L-79">
          <mxGeometry y="192" width="172" height="16" as="geometry" />
        </mxCell>
        <mxCell id="BYD55XEwTdzDxL9DiL2L-102" value="- points: int[]" style="text;align=left;verticalAlign=top;spacingLeft=4;spacingRight=4;overflow=hidden;rotatable=0;points=[[0,0.5],[1,0.5]];portConstraint=eastwest;" vertex="1" parent="BYD55XEwTdzDxL9DiL2L-79">
          <mxGeometry y="208" width="172" height="24" as="geometry" />
        </mxCell>
        <mxCell id="BYD55XEwTdzDxL9DiL2L-84" value="" style="line;html=1;strokeWidth=1;align=left;verticalAlign=middle;spacingTop=-1;spacingLeft=3;spacingRight=3;rotatable=0;labelPosition=right;points=[];portConstraint=eastwest;" vertex="1" parent="BYD55XEwTdzDxL9DiL2L-79">
          <mxGeometry y="232" width="172" height="14" as="geometry" />
        </mxCell>
        <mxCell id="BYD55XEwTdzDxL9DiL2L-119" value="+ getType(): String" style="text;align=left;verticalAlign=top;spacingLeft=4;spacingRight=4;overflow=hidden;rotatable=0;points=[[0,0.5],[1,0.5]];portConstraint=eastwest;" vertex="1" parent="BYD55XEwTdzDxL9DiL2L-79">
          <mxGeometry y="246" width="172" height="18" as="geometry" />
        </mxCell>
        <mxCell id="BYD55XEwTdzDxL9DiL2L-103" value="+ getHeight(): int" style="text;align=left;verticalAlign=top;spacingLeft=4;spacingRight=4;overflow=hidden;rotatable=0;points=[[0,0.5],[1,0.5]];portConstraint=eastwest;" vertex="1" parent="BYD55XEwTdzDxL9DiL2L-79">
          <mxGeometry y="264" width="172" height="16" as="geometry" />
        </mxCell>
        <mxCell id="BYD55XEwTdzDxL9DiL2L-104" value="+ getWidth(): int" style="text;align=left;verticalAlign=top;spacingLeft=4;spacingRight=4;overflow=hidden;rotatable=0;points=[[0,0.5],[1,0.5]];portConstraint=eastwest;" vertex="1" parent="BYD55XEwTdzDxL9DiL2L-79">
          <mxGeometry y="280" width="172" height="20" as="geometry" />
        </mxCell>
        <mxCell id="BYD55XEwTdzDxL9DiL2L-107" value="+ getRadius(): int" style="text;align=left;verticalAlign=top;spacingLeft=4;spacingRight=4;overflow=hidden;rotatable=0;points=[[0,0.5],[1,0.5]];portConstraint=eastwest;" vertex="1" parent="BYD55XEwTdzDxL9DiL2L-79">
          <mxGeometry y="300" width="172" height="16" as="geometry" />
        </mxCell>
        <mxCell id="BYD55XEwTdzDxL9DiL2L-108" value="+ getNumberOfSides(): int" style="text;align=left;verticalAlign=top;spacingLeft=4;spacingRight=4;overflow=hidden;rotatable=0;points=[[0,0.5],[1,0.5]];portConstraint=eastwest;" vertex="1" parent="BYD55XEwTdzDxL9DiL2L-79">
          <mxGeometry y="316" width="172" height="20" as="geometry" />
        </mxCell>
        <mxCell id="BYD55XEwTdzDxL9DiL2L-111" value="+ getFill(): String" style="text;align=left;verticalAlign=top;spacingLeft=4;spacingRight=4;overflow=hidden;rotatable=0;points=[[0,0.5],[1,0.5]];portConstraint=eastwest;" vertex="1" parent="BYD55XEwTdzDxL9DiL2L-79">
          <mxGeometry y="336" width="172" height="16" as="geometry" />
        </mxCell>
        <mxCell id="BYD55XEwTdzDxL9DiL2L-112" value="+ getPosition(): Position" style="text;align=left;verticalAlign=top;spacingLeft=4;spacingRight=4;overflow=hidden;rotatable=0;points=[[0,0.5],[1,0.5]];portConstraint=eastwest;" vertex="1" parent="BYD55XEwTdzDxL9DiL2L-79">
          <mxGeometry y="352" width="172" height="20" as="geometry" />
        </mxCell>
        <mxCell id="BYD55XEwTdzDxL9DiL2L-113" value="+ getOpacity(): String" style="text;align=left;verticalAlign=top;spacingLeft=4;spacingRight=4;overflow=hidden;rotatable=0;points=[[0,0.5],[1,0.5]];portConstraint=eastwest;" vertex="1" parent="BYD55XEwTdzDxL9DiL2L-79">
          <mxGeometry y="372" width="172" height="18" as="geometry" />
        </mxCell>
        <mxCell id="BYD55XEwTdzDxL9DiL2L-85" value="+ getStroke(): String" style="text;align=left;verticalAlign=top;spacingLeft=4;spacingRight=4;overflow=hidden;rotatable=0;points=[[0,0.5],[1,0.5]];portConstraint=eastwest;" vertex="1" parent="BYD55XEwTdzDxL9DiL2L-79">
          <mxGeometry y="390" width="172" height="16" as="geometry" />
        </mxCell>
        <mxCell id="BYD55XEwTdzDxL9DiL2L-86" value="+ getStrokeWidth(): String" style="text;align=left;verticalAlign=top;spacingLeft=4;spacingRight=4;overflow=hidden;rotatable=0;points=[[0,0.5],[1,0.5]];portConstraint=eastwest;" vertex="1" parent="BYD55XEwTdzDxL9DiL2L-79">
          <mxGeometry y="406" width="172" height="20" as="geometry" />
        </mxCell>
        <mxCell id="BYD55XEwTdzDxL9DiL2L-87" value="+ isDraggable(): boolean" style="text;align=left;verticalAlign=top;spacingLeft=4;spacingRight=4;overflow=hidden;rotatable=0;points=[[0,0.5],[1,0.5]];portConstraint=eastwest;" vertex="1" parent="BYD55XEwTdzDxL9DiL2L-79">
          <mxGeometry y="426" width="172" height="18" as="geometry" />
        </mxCell>
        <mxCell id="BYD55XEwTdzDxL9DiL2L-88" value="+ getKey(): String" style="text;align=left;verticalAlign=top;spacingLeft=4;spacingRight=4;overflow=hidden;rotatable=0;points=[[0,0.5],[1,0.5]];portConstraint=eastwest;" vertex="1" parent="BYD55XEwTdzDxL9DiL2L-79">
          <mxGeometry y="444" width="172" height="18" as="geometry" />
        </mxCell>
        <mxCell id="BYD55XEwTdzDxL9DiL2L-117" value="+ getPoints(): int[]" style="text;align=left;verticalAlign=top;spacingLeft=4;spacingRight=4;overflow=hidden;rotatable=0;points=[[0,0.5],[1,0.5]];portConstraint=eastwest;" vertex="1" parent="BYD55XEwTdzDxL9DiL2L-79">
          <mxGeometry y="462" width="172" height="16" as="geometry" />
        </mxCell>
        <mxCell id="BYD55XEwTdzDxL9DiL2L-120" value="+ setType(String): void" style="text;align=left;verticalAlign=top;spacingLeft=4;spacingRight=4;overflow=hidden;rotatable=0;points=[[0,0.5],[1,0.5]];portConstraint=eastwest;" vertex="1" parent="BYD55XEwTdzDxL9DiL2L-79">
          <mxGeometry y="478" width="172" height="18" as="geometry" />
        </mxCell>
        <mxCell id="BYD55XEwTdzDxL9DiL2L-105" value="+ setWidth(int): void" style="text;align=left;verticalAlign=top;spacingLeft=4;spacingRight=4;overflow=hidden;rotatable=0;points=[[0,0.5],[1,0.5]];portConstraint=eastwest;" vertex="1" parent="BYD55XEwTdzDxL9DiL2L-79">
          <mxGeometry y="496" width="172" height="14" as="geometry" />
        </mxCell>
        <mxCell id="BYD55XEwTdzDxL9DiL2L-106" value="+ setHeight(int):void" style="text;align=left;verticalAlign=top;spacingLeft=4;spacingRight=4;overflow=hidden;rotatable=0;points=[[0,0.5],[1,0.5]];portConstraint=eastwest;" vertex="1" parent="BYD55XEwTdzDxL9DiL2L-79">
          <mxGeometry y="510" width="172" height="16" as="geometry" />
        </mxCell>
        <mxCell id="BYD55XEwTdzDxL9DiL2L-109" value="+ setRadius(int): void" style="text;align=left;verticalAlign=top;spacingLeft=4;spacingRight=4;overflow=hidden;rotatable=0;points=[[0,0.5],[1,0.5]];portConstraint=eastwest;" vertex="1" parent="BYD55XEwTdzDxL9DiL2L-79">
          <mxGeometry y="526" width="172" height="14" as="geometry" />
        </mxCell>
        <mxCell id="BYD55XEwTdzDxL9DiL2L-110" value="+ setNumberOfSides(int):void" style="text;align=left;verticalAlign=top;spacingLeft=4;spacingRight=4;overflow=hidden;rotatable=0;points=[[0,0.5],[1,0.5]];portConstraint=eastwest;" vertex="1" parent="BYD55XEwTdzDxL9DiL2L-79">
          <mxGeometry y="540" width="172" height="16" as="geometry" />
        </mxCell>
        <mxCell id="BYD55XEwTdzDxL9DiL2L-114" value="+ setFill(String): void" style="text;align=left;verticalAlign=top;spacingLeft=4;spacingRight=4;overflow=hidden;rotatable=0;points=[[0,0.5],[1,0.5]];portConstraint=eastwest;" vertex="1" parent="BYD55XEwTdzDxL9DiL2L-79">
          <mxGeometry y="556" width="172" height="14" as="geometry" />
        </mxCell>
        <mxCell id="BYD55XEwTdzDxL9DiL2L-116" value="+ setOpacity(String):void" style="text;align=left;verticalAlign=top;spacingLeft=4;spacingRight=4;overflow=hidden;rotatable=0;points=[[0,0.5],[1,0.5]];portConstraint=eastwest;" vertex="1" parent="BYD55XEwTdzDxL9DiL2L-79">
          <mxGeometry y="570" width="172" height="16" as="geometry" />
        </mxCell>
        <mxCell id="BYD55XEwTdzDxL9DiL2L-115" value="+ setPosition(Position):void" style="text;align=left;verticalAlign=top;spacingLeft=4;spacingRight=4;overflow=hidden;rotatable=0;points=[[0,0.5],[1,0.5]];portConstraint=eastwest;" vertex="1" parent="BYD55XEwTdzDxL9DiL2L-79">
          <mxGeometry y="586" width="172" height="16" as="geometry" />
        </mxCell>
        <mxCell id="BYD55XEwTdzDxL9DiL2L-89" value="+ setStroke(String): void" style="text;align=left;verticalAlign=top;spacingLeft=4;spacingRight=4;overflow=hidden;rotatable=0;points=[[0,0.5],[1,0.5]];portConstraint=eastwest;" vertex="1" parent="BYD55XEwTdzDxL9DiL2L-79">
          <mxGeometry y="602" width="172" height="14" as="geometry" />
        </mxCell>
        <mxCell id="BYD55XEwTdzDxL9DiL2L-90" value="+ setStrokeWidth(String):void" style="text;align=left;verticalAlign=top;spacingLeft=4;spacingRight=4;overflow=hidden;rotatable=0;points=[[0,0.5],[1,0.5]];portConstraint=eastwest;" vertex="1" parent="BYD55XEwTdzDxL9DiL2L-79">
          <mxGeometry y="616" width="172" height="16" as="geometry" />
        </mxCell>
        <mxCell id="BYD55XEwTdzDxL9DiL2L-91" value="+ setDraggable(boolean):void" style="text;align=left;verticalAlign=top;spacingLeft=4;spacingRight=4;overflow=hidden;rotatable=0;points=[[0,0.5],[1,0.5]];portConstraint=eastwest;" vertex="1" parent="BYD55XEwTdzDxL9DiL2L-79">
          <mxGeometry y="632" width="172" height="16" as="geometry" />
        </mxCell>
        <mxCell id="BYD55XEwTdzDxL9DiL2L-92" value="+ setKey(String):void" style="text;align=left;verticalAlign=top;spacingLeft=4;spacingRight=4;overflow=hidden;rotatable=0;points=[[0,0.5],[1,0.5]];portConstraint=eastwest;" vertex="1" parent="BYD55XEwTdzDxL9DiL2L-79">
          <mxGeometry y="648" width="172" height="16" as="geometry" />
        </mxCell>
        <mxCell id="BYD55XEwTdzDxL9DiL2L-118" value="+ setPoints(int[]): void" style="text;align=left;verticalAlign=top;spacingLeft=4;spacingRight=4;overflow=hidden;rotatable=0;points=[[0,0.5],[1,0.5]];portConstraint=eastwest;" vertex="1" parent="BYD55XEwTdzDxL9DiL2L-79">
          <mxGeometry y="664" width="172" height="20" as="geometry" />
        </mxCell>
        <mxCell id="BYD55XEwTdzDxL9DiL2L-121" value="ShapeDTO" style="swimlane;fontStyle=0;align=center;verticalAlign=top;childLayout=stackLayout;horizontal=1;startSize=26;horizontalStack=0;resizeParent=1;resizeLast=0;collapsible=1;marginBottom=0;rounded=0;shadow=0;strokeWidth=1;" vertex="1" parent="WIyWlLk6GJQsqaUBKTNV-1">
          <mxGeometry x="50" y="10" width="212" height="150" as="geometry">
            <mxRectangle x="550" y="140" width="160" height="26" as="alternateBounds" />
          </mxGeometry>
        </mxCell>
        <mxCell id="BYD55XEwTdzDxL9DiL2L-122" value="- shapeStack: stack&lt;Element&gt;" style="text;align=left;verticalAlign=top;spacingLeft=4;spacingRight=4;overflow=hidden;rotatable=0;points=[[0,0.5],[1,0.5]];portConstraint=eastwest;" vertex="1" parent="BYD55XEwTdzDxL9DiL2L-121">
          <mxGeometry y="26" width="212" height="14" as="geometry" />
        </mxCell>
        <mxCell id="BYD55XEwTdzDxL9DiL2L-127" value="- shapes: HashMap&lt;String,Element&gt;" style="text;align=left;verticalAlign=top;spacingLeft=4;spacingRight=4;overflow=hidden;rotatable=0;points=[[0,0.5],[1,0.5]];portConstraint=eastwest;" vertex="1" parent="BYD55XEwTdzDxL9DiL2L-121">
          <mxGeometry y="40" width="212" height="20" as="geometry" />
        </mxCell>
        <mxCell id="BYD55XEwTdzDxL9DiL2L-123" value="" style="line;html=1;strokeWidth=1;align=left;verticalAlign=middle;spacingTop=-1;spacingLeft=3;spacingRight=3;rotatable=0;labelPosition=right;points=[];portConstraint=eastwest;" vertex="1" parent="BYD55XEwTdzDxL9DiL2L-121">
          <mxGeometry y="60" width="212" height="8" as="geometry" />
        </mxCell>
        <mxCell id="BYD55XEwTdzDxL9DiL2L-124" value="+ addShape(Element): void" style="text;align=left;verticalAlign=top;spacingLeft=4;spacingRight=4;overflow=hidden;rotatable=0;points=[[0,0.5],[1,0.5]];portConstraint=eastwest;" vertex="1" parent="BYD55XEwTdzDxL9DiL2L-121">
          <mxGeometry y="68" width="212" height="16" as="geometry" />
        </mxCell>
        <mxCell id="BYD55XEwTdzDxL9DiL2L-125" value="+ getShape(String): Element" style="text;align=left;verticalAlign=top;spacingLeft=4;spacingRight=4;overflow=hidden;rotatable=0;points=[[0,0.5],[1,0.5]];portConstraint=eastwest;" vertex="1" parent="BYD55XEwTdzDxL9DiL2L-121">
          <mxGeometry y="84" width="212" height="20" as="geometry" />
        </mxCell>
        <mxCell id="BYD55XEwTdzDxL9DiL2L-128" value="+ delete(String): void" style="text;align=left;verticalAlign=top;spacingLeft=4;spacingRight=4;overflow=hidden;rotatable=0;points=[[0,0.5],[1,0.5]];portConstraint=eastwest;" vertex="1" parent="BYD55XEwTdzDxL9DiL2L-121">
          <mxGeometry y="104" width="212" height="16" as="geometry" />
        </mxCell>
        <mxCell id="BYD55XEwTdzDxL9DiL2L-126" value="+ dbSize(): int" style="text;align=left;verticalAlign=top;spacingLeft=4;spacingRight=4;overflow=hidden;rotatable=0;points=[[0,0.5],[1,0.5]];portConstraint=eastwest;" vertex="1" parent="BYD55XEwTdzDxL9DiL2L-121">
          <mxGeometry y="120" width="212" height="30" as="geometry" />
        </mxCell>
      </root>
    </mxGraphModel>
  </diagram>
</mxfile>
